<svg xmlns="http://www.w3.org/2000/svg" viewBox="0 0 166.92 63.87">
    <defs>
        <style>.cls-1{fill:#ff5800;}</style>
    </defs>
    <g id="Layer_2">
        <g id="Layer_1-2">
            <path class="cls-1"
                  d="M13.3,61.7c30.46-9.73,61.12-19,90.86-30.78,8.36-3.32,16.68-6.76,25-10.2l-12.92-7.34c.38,1.38.59,2.83.87,4.23q1.05,5.07,2.08,10.16,2.37,11.52,4.72,23.06c.36,1.75.84,3.51,1.08,5.27l12.91-12.91c-6.38-2.15-12.54-4.84-18.81-7.28s-12.24-4.7-18.29-7.25l2.51,1.06a296.84,296.84,0,0,1-35-17.45c-1.27-.74-2.53-1.51-3.83-2.21l-5.3,19.57q24.89,2.89,49.7,6.15,7.29.94,14.57,1.93l-2.8-.38q16.52,2.22,33,4.62V21.7C126.05,25.41,98.54,29.5,71,33.37Q59,35.05,47,36.67l2.79-.37C37.09,38,24.34,39.64,11.57,41.11c-2.87.34-5.3,1-7.42,3.08A10.49,10.49,0,0,0,4.15,59c1.91,1.76,4.72,3.39,7.42,3.07,19.59-2.25,39.12-4.88,58.64-7.6,19.32-2.69,38.62-5.5,57.93-8.24,10.35-1.47,20.7-2.93,31.06-4.32l2.51-1.06a8,8,0,0,0,2.95-2.7,10.11,10.11,0,0,0,2.25-6.37,12.44,12.44,0,0,0-1.43-5.3c-1.06-2-4-4.48-6.28-4.82-26.4-3.86-52.86-7.34-79.34-10.59Q69.51,9.84,59.14,8.63L56.35,9a8,8,0,0,0-3.57,1.88A10,10,0,0,0,49,16.34c-1,4.43.62,9.6,4.82,11.85,5,2.71,9.88,5.77,15,8.44a363.69,363.69,0,0,0,37,16.58c4.39,1.72,8.81,3.37,13.19,5.14s8.82,3.57,13.33,5.09a10.51,10.51,0,0,0,12.92-7.34,10.57,10.57,0,0,0,0-5.58c-.19-1.41-.58-2.83-.86-4.23q-1-5.07-2.08-10.15-2.35-11.54-4.72-23.07c-.36-1.74-.61-3.55-1.09-5.27a10.71,10.71,0,0,0-4.82-6.27C129.34.3,126.11-.59,123.57.47,108.75,6.6,93.93,12.73,78.85,18.18c-14.93,5.39-30.08,10.15-45.2,15L7.72,41.45a11,11,0,0,0-6.28,4.83A10.74,10.74,0,0,0,.38,54.37,10.52,10.52,0,0,0,13.3,61.7Z"/>
        </g>
    </g>
</svg>