<svg xmlns="http://www.w3.org/2000/svg" viewBox="0 0 3586.91 791.85"><defs><style>.cls-1{fill:#494747;}.cls-2{fill:#ff5800;}</style></defs><g id="Layer_2" data-name="Layer 2"><g id="Layer_1-2" data-name="Layer 1"><path class="cls-1" d="M3580.22,467.69,3399,473.88l.94,27.74,173.8-5.94,2.4,70.26-173.8,5.93,1,27.74,181.19-6.19,2.4,70.26L3313.28,673l-9.1-266.24,273.64-9.35Z"/><path class="cls-2" d="M3044.13,593q30-44.71,61.07-88.64,31.26-44.1,63.67-87.38,18.18-24.25,36.72-48.25l-8.21,10.62q33.21-43,67.53-85t69.77-83.2q20-23.15,40.23-46L3285.29,128,3297,296.57l11.66,167.55,6.6,94.74,79-45.33q-41.51-21.81-81.47-46.39t-78.48-52.06q-21.59-15.4-42.56-31.61l10.63,8.21A1386.92,1386.92,0,0,1,3084,288.93q-15.7-15.27-30.91-31l-23.17,87.75a17.22,17.22,0,0,1,3-.66l-14,1.88c6-.8,12.16-.41,18.16-.06,9.54.57,19.06,1.57,28.55,2.68q9.93,1.15,19.82,2.5l-14-1.88c32.61,4.39,65.09,9.68,97.53,15.2q46.35,7.9,92.58,16.51,29.26,5.43,58.49,11.09l76.29,14.73,67.91,13.12,20.48,3.95V323.45c-39.35,12.22-78.14,26.14-116.53,41.09-41.33,16.09-82.2,33.35-123,50.67q-31.35,13.31-62.69,26.61l12.54-5.29c-53.51,22.58-107.32,44.53-162.21,63.57q-23.91,8.29-48.08,15.81A58.76,58.76,0,0,0,2953.47,540a38.94,38.94,0,0,0-6.23,19.52,39.76,39.76,0,0,0,.94,20.93l5.29,12.54a52.79,52.79,0,0,0,18.83,18.84l12.54,5.29a52.91,52.91,0,0,0,27.92,0c39.35-12.21,78.14-26.14,116.53-41.08,41.33-16.1,82.2-33.35,123-50.67q31.35-13.3,62.69-26.62l-12.54,5.29c53.51-22.58,107.32-44.53,162.21-63.57q23.91-8.29,48.08-15.81l12.54-5.29A39.69,39.69,0,0,0,3540,405.89a26.34,26.34,0,0,0,6.75-11.58,39.55,39.55,0,0,0,4.52-20.23l-1.88-14-5.29-12.54a39.61,39.61,0,0,0-13.52-14.73,39.6,39.6,0,0,0-17.85-9.4L3443.11,310l-22.19-4.28L3384,298.59q-27.61-5.34-55.25-10.66-18.54-3.56-37.12-7-26.94-5-53.92-9.8-31-5.5-62.07-10.67c-20.26-3.35-40.54-6.57-60.87-9.49-21.25-3-42.54-6-63.92-8.09-10.28-1-21-2.22-31.32-1.1-5.26.57-10.64,1.12-15.85,2.17a14.12,14.12,0,0,0-1.67.43,52.58,52.58,0,0,0-36.67,36.67c-5,18.31.44,37.54,13.5,51.08a1383.53,1383.53,0,0,0,127.32,116.41c48.08,38.74,98.18,74.92,150.69,107.42q41.37,25.59,84.45,48.22a52.5,52.5,0,0,0,79-45.33l-11.74-168.54-11.66-167.55-6.6-94.74-1.88-14-5.29-12.55-8.21-10.62A39.33,39.33,0,0,0,3358,80.05a26.14,26.14,0,0,0-13.25-3.58,26.45,26.45,0,0,0-14,0,26.14,26.14,0,0,0-13.25,3.58,39.33,39.33,0,0,0-16.89,10.86q-36,40.61-71,82.14-34.82,41.37-68.51,83.64Q3123.43,304,3087,352.37q-32.71,43.33-64.26,87.53-31.41,44-61.64,88.82-3.81,5.65-7.6,11.32a38.94,38.94,0,0,0-6.23,19.52,47.21,47.21,0,0,0,10.33,38.79,39.69,39.69,0,0,0,14.73,13.52l12.54,5.29a52.91,52.91,0,0,0,27.92,0l12.54-5.29A52.71,52.71,0,0,0,3044.13,593Z"/><path class="cls-2" d="M3237.57,451.15a58.39,58.39,0,0,0,37.12-15.37,39.42,39.42,0,0,0,10.86-16.9,39.55,39.55,0,0,0,4.52-20.23l-1.88-13.95a52.35,52.35,0,0,0-13.5-23.17l-10.62-8.21a52.26,52.26,0,0,0-26.5-7.17,58.33,58.33,0,0,0-37.12,15.38,39.42,39.42,0,0,0-10.86,16.9,39.49,39.49,0,0,0-4.52,20.22l1.87,14a52.52,52.52,0,0,0,13.51,23.17l10.62,8.21a52.35,52.35,0,0,0,26.5,7.16Z"/><path class="cls-2" d="M3290.85,288.25a17,17,0,0,0,11.67-4.83,16.75,16.75,0,0,0,4.83-11.67c-.19-4.27-1.59-8.69-4.83-11.67a16.51,16.51,0,0,0-23.34,0,16.81,16.81,0,0,0-4.83,11.67c.19,4.27,1.59,8.7,4.83,11.67a17.17,17.17,0,0,0,11.67,4.83Z"/><path class="cls-2" d="M3299,407.8l5.52-1.88a18.41,18.41,0,0,0,9.87-7.58,12.33,12.33,0,0,0,2-6.14,12.49,12.49,0,0,0-.29-6.58l-1.66-3.94a16.63,16.63,0,0,0-5.92-5.92l-3.95-1.66a16.52,16.52,0,0,0-8.77,0l-5.52,1.88a18.49,18.49,0,0,0-9.87,7.59,12.29,12.29,0,0,0-2,6.13,12.49,12.49,0,0,0,.29,6.58l1.66,3.94a16.63,16.63,0,0,0,5.92,5.92l3.95,1.66a16.52,16.52,0,0,0,8.77,0Z"/><path class="cls-2" d="M257.36,203.5q19,96.33,33.47,193.51,4,27.23,7.7,54.5l-1.87-14q7.86,58.56,14,117.33t10.65,117.68q2.52,33.36,4.51,66.75l89.62-37.12L288.2,591.49,160.93,480.78l-71.31-62L66.46,506.51a1382.36,1382.36,0,0,1,176.32-42.4q25.34-4.37,50.81-7.78l-13.95,1.88a1387.93,1387.93,0,0,1,162.06-12.1q23.07-.36,46.15.06l-45.33-79a16.77,16.77,0,0,1-1.8,2.76l8.21-10.62a92.09,92.09,0,0,1-11.43,11.6c-6.24,5.62-12.74,10.95-19.29,16.2q-6.79,5.44-13.67,10.74l10.62-8.21c-26.14,20.19-52.94,39.53-79.85,58.67Q295.73,476.47,255.66,504q-23.72,16.34-47.58,32.47L139,583.13l-57.67,39L64,633.85l71.83,71.83c22.85-43.41,43.4-88,62.72-133,20.61-48.09,40.11-96.63,59.71-145.14,10.19-25.22,20.46-50.42,31-75.49L284,364.55c16.5-39.06,33.77-77.81,52.6-115.81q8.16-16.45,16.7-32.7a39.07,39.07,0,0,0,6.23-19.52,39.75,39.75,0,0,0-.94-20.93,39.47,39.47,0,0,0-9.39-17.86,39.85,39.85,0,0,0-14.73-13.52c-12.19-6.44-26.95-9.66-40.46-5.29l-12.54,5.29A52.76,52.76,0,0,0,262.66,163c-22.85,43.41-43.4,88-62.72,133-20.62,48.09-40.11,96.63-59.71,145.13-10.19,25.23-20.46,50.43-31,75.49l5.3-12.54C98,543.24,80.72,582,61.89,620q-8.16,16.46-16.7,32.7L39.9,665.23A39.75,39.75,0,0,0,39,686.16a26.11,26.11,0,0,0,3.58,13.25,39.42,39.42,0,0,0,10.86,16.9L64,724.52l12.55,5.29a39.75,39.75,0,0,0,20.93.94A39.17,39.17,0,0,0,117,724.52l58.76-39.74,18.65-12.61,31.22-21.12q23.26-15.74,46.52-31.47,15.6-10.59,31.15-21.28Q326,582.7,348.6,566.94q25.72-18,51.25-36.21,25.08-18,49.81-36.37c17.06-12.78,34.07-25.68,50.5-39.27,7.94-6.56,16.29-13.23,22.8-21.26,2.32-2.87,7.83-8.87,10.22-13.66a52.56,52.56,0,0,0,0-53c-9.47-16.18-26.73-25.67-45.33-26a1381.35,1381.35,0,0,0-172.8,7.76c-61.34,6.62-122.35,16.52-182.41,30.65q-47.47,11.18-94.1,25.68c-17.65,5.49-31.68,18.57-36.66,36.67A52.47,52.47,0,0,0,15.38,493l127.27,110.7,127.28,110.7,71.3,62,10.63,8.21,12.54,5.29,14,1.87a39.41,39.41,0,0,0,20.22-4.52,26.31,26.31,0,0,0,11.59-6.75,26.3,26.3,0,0,0,9.41-9.42,26,26,0,0,0,6.75-11.58,39.56,39.56,0,0,0,4.53-20.23q-3.23-54.12-7.87-108.16T412.25,523.23q-6.81-60.35-15.33-120.48-7.5-53.72-16.43-107.2T361.21,188.82q-1.29-6.62-2.6-13.23a39.47,39.47,0,0,0-9.39-17.86,39.85,39.85,0,0,0-14.73-13.52A39.11,39.11,0,0,0,315,138a39.8,39.8,0,0,0-20.94.94l-12.54,5.29A52.76,52.76,0,0,0,262.66,163l-5.3,12.55a52.87,52.87,0,0,0,0,27.91Z"/><path class="cls-2" d="M257.86,529.59a39.65,39.65,0,0,0,20.23-4.52,47.21,47.21,0,0,0,27.75-27.75,39.45,39.45,0,0,0,4.52-20.23l-1.87-14A52.56,52.56,0,0,0,295,440l-10.63-8.21a52.26,52.26,0,0,0-26.5-7.17,39.51,39.51,0,0,0-20.22,4.52A39.42,39.42,0,0,0,220.74,440a39.21,39.21,0,0,0-10.85,16.89,39.56,39.56,0,0,0-4.53,20.23l1.88,14a52.37,52.37,0,0,0,13.5,23.16l10.63,8.21a52.22,52.22,0,0,0,26.49,7.17Z"/><path class="cls-2" d="M309.92,621a17,17,0,0,0,11.67-4.84,16.77,16.77,0,0,0,4.83-11.66c-.19-4.27-1.59-8.7-4.83-11.67a16.51,16.51,0,0,0-23.34,0,16.79,16.79,0,0,0-4.83,11.67c.19,4.26,1.59,8.69,4.83,11.66A17.13,17.13,0,0,0,309.92,621Z"/><path class="cls-2" d="M208.07,513.86l-2.57,5.24a12.24,12.24,0,0,0-2,6.14,17,17,0,0,0,7.88,16.44l3.94,1.66a16.73,16.73,0,0,0,8.77,0l3.94-1.66a16.55,16.55,0,0,0,5.92-5.92l2.58-5.24a12.37,12.37,0,0,0,2-6.14,17,17,0,0,0-7.88-16.44l-3.94-1.66a16.52,16.52,0,0,0-8.77,0L214,507.94a16.63,16.63,0,0,0-5.92,5.92Z"/><path class="cls-1" d="M544.78,693.93c1.48,43.26-23,74.46-89.19,76.72l-221.87,7.58L224.63,512l207.07-7.08c69.89-2.39,92.62,23.49,93.93,61.95,1.1,32.17-17.09,52.41-43.74,63.32C515.46,637.55,543.46,655.1,544.78,693.93ZM319.35,575.39l1.31,38.46,85-2.91c17-.58,28.84-1,28.19-20.21s-12.49-18.83-29.51-18.25ZM423.74,705.1c13.31-.46,25.14-.86,24.48-20.09s-12.49-18.82-25.8-18.37l-99.84,3.41,1.31,38.46Z"/><path class="cls-1" d="M843.13,757.41l-23.41-45.85-146.43,5L653.06,763.9l-98.36,3.36,118.48-270.6,131.64-4.49L941.49,754.05ZM702.07,648.94l84.31-2.88-45.21-88Z"/><path class="cls-1" d="M2339.05,439.75l92.44-3.15,9.1,266.24-136.82,4.67L2171.29,535.82l6,176L2084.86,715l-9.09-266.24,136.82-4.68,132.47,171.7Z"/><path class="cls-1" d="M3099.85,602.57l173.79-5.94,2.66,77.66-266.24,9.09L3001,417.14l92.45-3.16Z"/><path class="cls-2" d="M643.25,565.57q30-44.72,61.07-88.64,31.26-44.12,63.67-87.38,18.18-24.26,36.72-48.26l-8.21,10.63q33.19-43,67.53-85t69.77-83.2q20-23.15,40.23-46l-89.62-37.12,11.73,168.54,11.67,167.55,6.6,94.74,79-45.33q-41.5-21.81-81.47-46.39t-78.48-52.06Q811.88,372.22,790.9,356l10.63,8.21A1385.39,1385.39,0,0,1,683.11,261.47q-15.71-15.27-30.91-31L629,318.18a16.44,16.44,0,0,1,3-.66L618.1,319.4c6-.8,12.16-.41,18.16-.06,9.54.57,19.06,1.57,28.55,2.68q9.93,1.16,19.82,2.5l-14-1.88c32.61,4.38,65.1,9.68,97.53,15.2q46.37,7.89,92.59,16.51,29.26,5.43,58.49,11.09l76.29,14.73,67.91,13.12,20.48,3.95V296c-39.35,12.22-78.14,26.14-116.53,41.09-41.33,16.09-82.2,33.35-123,50.67-20.9,8.86-41.78,17.78-62.69,26.61l12.54-5.29C740.74,431.65,686.93,453.6,632,472.64q-23.91,8.3-48.08,15.81a58.76,58.76,0,0,0-31.37,24.13,38.94,38.94,0,0,0-6.23,19.52,39.76,39.76,0,0,0,.93,20.93l5.3,12.54a52.71,52.71,0,0,0,18.83,18.84L584,589.7a52.91,52.91,0,0,0,27.92,0c39.35-12.22,78.14-26.14,116.53-41.09,41.33-16.09,82.2-33.35,123-50.67,20.91-8.86,41.78-17.78,62.7-26.61l-12.54,5.29c53.51-22.58,107.32-44.53,162.21-63.57q23.91-8.3,48.08-15.81l12.54-5.29a39.85,39.85,0,0,0,14.73-13.52,26.31,26.31,0,0,0,6.75-11.59,39.59,39.59,0,0,0,4.52-20.22l-1.88-14-5.29-12.54a39.69,39.69,0,0,0-13.52-14.73,39.6,39.6,0,0,0-17.85-9.4l-69.65-13.45L1020,278.26l-36.93-7.14c-18.41-3.55-36.83-7.14-55.25-10.66q-18.54-3.54-37.12-7-26.94-5-53.92-9.8-31-5.51-62.07-10.67c-20.26-3.36-40.54-6.57-60.87-9.49-21.25-3.05-42.55-6.06-63.92-8.09-10.28-1-21-2.22-31.32-1.1-5.26.57-10.64,1.12-15.85,2.16a14.17,14.17,0,0,0-1.67.44,52.58,52.58,0,0,0-36.67,36.67c-5,18.31.44,37.54,13.5,51.07A1382.34,1382.34,0,0,0,705.27,421.09C753.34,459.83,803.45,496,856,528.51q41.35,25.59,84.45,48.22a52.5,52.5,0,0,0,79-45.33l-11.74-168.54L996,195.31l-6.6-94.74-1.88-14-5.29-12.54L974,63.45a39.38,39.38,0,0,0-16.89-10.86A26.14,26.14,0,0,0,943.89,49a26.45,26.45,0,0,0-14,0,26.14,26.14,0,0,0-13.25,3.58,39.33,39.33,0,0,0-16.89,10.86q-36.06,40.59-71,82.14Q794,187,760.27,229.23q-37.72,47.34-74.19,95.68-32.7,43.33-64.25,87.53-31.41,44-61.64,88.82-3.81,5.65-7.6,11.32a38.94,38.94,0,0,0-6.23,19.52,47.08,47.08,0,0,0,10.33,38.78,39.64,39.64,0,0,0,14.73,13.53L584,589.7a52.91,52.91,0,0,0,27.92,0l12.54-5.29a52.79,52.79,0,0,0,18.83-18.84Z"/><path class="cls-2" d="M836.69,423.69a58.33,58.33,0,0,0,37.12-15.38,39.33,39.33,0,0,0,10.86-16.89,39.65,39.65,0,0,0,4.52-20.23l-1.88-14a52.37,52.37,0,0,0-13.5-23.16l-10.62-8.21a52.26,52.26,0,0,0-26.5-7.17,58.33,58.33,0,0,0-37.12,15.38A39.38,39.38,0,0,0,788.71,351a39.55,39.55,0,0,0-4.52,20.23l1.87,14a52.48,52.48,0,0,0,13.51,23.16l10.62,8.21a52.26,52.26,0,0,0,26.5,7.17Z"/><path class="cls-2" d="M890,260.79A17,17,0,0,0,901.64,256a16.79,16.79,0,0,0,4.83-11.67c-.19-4.27-1.59-8.69-4.83-11.67a16.51,16.51,0,0,0-23.34,0,16.79,16.79,0,0,0-4.83,11.67c.19,4.27,1.59,8.69,4.83,11.67A17.17,17.17,0,0,0,890,260.79Z"/><path class="cls-2" d="M898.1,380.34l5.52-1.88a18.44,18.44,0,0,0,9.86-7.58,12.27,12.27,0,0,0,2-6.14,12.49,12.49,0,0,0-.29-6.58l-1.67-3.94a16.6,16.6,0,0,0-5.91-5.92l-4-1.66a16.52,16.52,0,0,0-8.77,0l-5.53,1.88a18.44,18.44,0,0,0-9.86,7.58,18.63,18.63,0,0,0-1.66,12.72l1.66,3.94a16.63,16.63,0,0,0,5.92,5.92l3.94,1.66a16.56,16.56,0,0,0,8.78,0Z"/><path class="cls-2" d="M2645.45,86.35q19.05,96.35,33.47,193.52,4,27.22,7.7,54.49l-1.87-13.95q7.86,58.56,14,117.32t10.65,117.69q2.52,33.35,4.51,66.75l89.62-37.12L2676.29,474.34,2549,363.64l-71.31-62-23.16,87.74A1385.75,1385.75,0,0,1,2630.87,347q25.34-4.35,50.81-7.77l-13.95,1.87A1387.92,1387.92,0,0,1,2829.79,329q23.07-.36,46.15,0l-45.33-79a17.66,17.66,0,0,1-1.8,2.76l8.21-10.63a91.42,91.42,0,0,1-11.43,11.6c-6.24,5.62-12.74,11-19.29,16.21q-6.78,5.43-13.67,10.74l10.62-8.21c-26.14,20.18-52.94,39.52-79.85,58.67q-39.58,28.15-79.65,55.65-23.72,16.32-47.58,32.46L2527.12,466l-57.67,39-17.34,11.73,71.83,71.83c22.85-43.41,43.4-88,62.72-133,20.62-48.09,40.11-96.64,59.71-145.14,10.19-25.23,20.46-50.43,31-75.49l-5.3,12.54c16.5-39.07,33.77-77.82,52.6-115.82q8.16-16.44,16.7-32.69a39.11,39.11,0,0,0,6.23-19.52,39.8,39.8,0,0,0-.94-20.94,39.48,39.48,0,0,0-9.39-17.85,39.76,39.76,0,0,0-14.73-13.52c-12.19-6.44-26.95-9.67-40.46-5.3l-12.54,5.3a52.6,52.6,0,0,0-18.83,18.83c-22.85,43.41-43.4,88-62.72,133-20.61,48.09-40.11,96.63-59.71,145.14-10.19,25.23-20.46,50.42-31,75.49l5.3-12.54c-16.5,39.06-33.77,77.82-52.6,115.82q-8.14,16.44-16.7,32.69L2428,548.08a39.8,39.8,0,0,0-.94,20.94,26.14,26.14,0,0,0,3.58,13.25,39.38,39.38,0,0,0,10.86,16.89l10.62,8.21,12.55,5.29a39.75,39.75,0,0,0,20.93.94,39.07,39.07,0,0,0,19.52-6.23l58.76-39.74L2582.52,555l31.22-21.11q23.27-15.74,46.52-31.47,15.6-10.6,31.15-21.28,22.7-15.6,45.28-31.36,25.72-18,51.25-36.21,25.08-18,49.81-36.37c17.06-12.78,34.07-25.69,50.5-39.27,7.94-6.56,16.29-13.23,22.8-21.27,2.32-2.86,7.83-8.86,10.23-13.66a52.6,52.6,0,0,0,0-53c-9.48-16.19-26.74-25.68-45.34-26a1383.26,1383.26,0,0,0-172.8,7.76,1498.74,1498.74,0,0,0-182.41,30.66q-47.47,11.16-94.1,25.68C2409,293.61,2395,306.68,2390,324.78a52.91,52.91,0,0,0,0,27.92,52.37,52.37,0,0,0,13.5,23.16l127.27,110.71L2658,597.27l71.3,62L2740,667.5l12.54,5.29,14,1.88a39.51,39.51,0,0,0,20.22-4.52,51.83,51.83,0,0,0,21-16.17,26.15,26.15,0,0,0,6.75-11.58,39.56,39.56,0,0,0,4.53-20.23Q2815.73,568,2811.08,514t-10.73-107.92q-6.82-60.34-15.34-120.48-7.5-53.7-16.43-107.2T2749.3,71.68q-1.29-6.63-2.6-13.24a39.48,39.48,0,0,0-9.39-17.85,39.76,39.76,0,0,0-14.73-13.52,39,39,0,0,0-19.52-6.23,39.79,39.79,0,0,0-20.94.93l-12.54,5.3a52.6,52.6,0,0,0-18.83,18.83l-5.3,12.54a52.87,52.87,0,0,0,0,27.91Z"/><path class="cls-2" d="M2646,412.44a58.45,58.45,0,0,0,37.13-15.37,39.39,39.39,0,0,0,10.85-16.9,39.43,39.43,0,0,0,4.52-20.23L2696.58,346a52.54,52.54,0,0,0-13.5-23.17l-10.63-8.21a52.26,52.26,0,0,0-26.5-7.17,58.53,58.53,0,0,0-37.12,15.38,39.3,39.3,0,0,0-10.85,16.9,39.52,39.52,0,0,0-4.53,20.22l1.88,14a52.35,52.35,0,0,0,13.5,23.17l10.63,8.21a52.11,52.11,0,0,0,26.49,7.16Z"/><path class="cls-2" d="M2698,503.85a17,17,0,0,0,11.67-4.83,16.79,16.79,0,0,0,4.83-11.67c-.19-4.26-1.59-8.69-4.83-11.66a16.49,16.49,0,0,0-23.34,0,16.77,16.77,0,0,0-4.83,11.66c.19,4.27,1.59,8.7,4.83,11.67a17.17,17.17,0,0,0,11.67,4.83Z"/><path class="cls-2" d="M2596.16,396.72l-2.57,5.24a12.23,12.23,0,0,0-2,6.13,12.49,12.49,0,0,0,.3,6.58,18.44,18.44,0,0,0,7.58,9.86l3.94,1.66a16.52,16.52,0,0,0,8.77,0l3.94-1.66a16.55,16.55,0,0,0,5.92-5.92l2.58-5.24a12.23,12.23,0,0,0,2-6.13,12.49,12.49,0,0,0-.3-6.58,18.44,18.44,0,0,0-7.58-9.86l-3.94-1.67a16.73,16.73,0,0,0-8.77,0l-4,1.67a16.63,16.63,0,0,0-5.92,5.92Z"/><path class="cls-1" d="M2719.92,426.74l92.45-3.16,9.09,266.24L2729,693l-3.22-94.29-151.61,5.18,3.22,94.29L2485,701.32l-9.1-266.24,92.44-3.16,3.22,94.29L2723.14,521Z"/><path class="cls-1" d="M933.24,620.68c-3.07-89.85,58.81-142.31,169-146.08,109.82-3.75,175.52,44.72,178.58,134.21,3.07,89.86-59.16,143.07-169,146.82C1001.65,759.4,936.32,710.91,933.24,620.68Zm251.45-8.59c-1.17-34.38-19.14-61.91-79.79-59.84s-76.71,30.39-75.52,65.15c1.2,35.13,19.54,62.64,79.82,60.58S1185.88,646.85,1184.69,612.09Z"/><path class="cls-2" d="M1455.16,145.74q19.06,96.33,33.47,193.51,4,27.22,7.7,54.5l-1.87-14q7.86,58.56,14,117.32t10.64,117.69q2.52,33.36,4.51,66.75l89.62-37.12L1486,533.73,1358.73,423l-71.31-62-23.16,87.75a1383.83,1383.83,0,0,1,176.33-42.41q25.32-4.35,50.81-7.77l-14,1.88a1388.1,1388.1,0,0,1,162.06-12.1q23.07-.36,46.15.06l-45.33-79a17.2,17.2,0,0,1-1.8,2.76l8.21-10.63a92.17,92.17,0,0,1-11.43,11.61c-6.24,5.61-12.74,11-19.29,16.2q-6.78,5.43-13.67,10.74l10.62-8.21c-26.14,20.19-52.94,39.53-79.85,58.67q-39.58,28.15-79.65,55.65-23.71,16.33-47.58,32.47l-69.05,46.7-57.67,39-17.33,11.73,71.83,71.83c22.84-43.41,43.39-88,62.71-133,20.62-48.09,40.11-96.63,59.71-145.14,10.19-25.23,20.46-50.42,31-75.49l-5.3,12.54c16.5-39.06,33.77-77.82,52.6-115.82q8.16-16.44,16.7-32.69a39.07,39.07,0,0,0,6.23-19.52,39.8,39.8,0,0,0-.94-20.94A39.48,39.48,0,0,0,1547,100a39.76,39.76,0,0,0-14.73-13.52c-12.19-6.44-27-9.67-40.46-5.29l-12.54,5.29a52.68,52.68,0,0,0-18.83,18.83c-22.84,43.41-43.4,88-62.72,133-20.61,48.09-40.11,96.64-59.71,145.14-10.19,25.23-20.46,50.42-31,75.49l5.29-12.54c-16.5,39.07-33.77,77.82-52.6,115.82q-8.14,16.44-16.7,32.69l-5.29,12.55a39.75,39.75,0,0,0-.94,20.93,26.24,26.24,0,0,0,3.58,13.25,39.33,39.33,0,0,0,10.86,16.89l10.63,8.21,12.54,5.3a39.75,39.75,0,0,0,20.93.93,39,39,0,0,0,19.52-6.23L1373.58,627l18.65-12.61,31.22-21.11q23.27-15.74,46.52-31.47,15.6-10.61,31.15-21.28,22.7-15.6,45.28-31.36,25.72-18,51.26-36.21,25.06-18,49.8-36.37c17.06-12.78,34.07-25.69,50.5-39.27,7.94-6.56,16.29-13.23,22.8-21.27,2.33-2.86,7.83-8.86,10.23-13.66a52.6,52.6,0,0,0,0-53c-9.48-16.19-26.73-25.68-45.34-26a1383.25,1383.25,0,0,0-172.8,7.75c-61.33,6.63-122.35,16.53-182.41,30.66Q1283,333,1236.34,347.5c-17.65,5.49-31.68,18.57-36.66,36.67a52.47,52.47,0,0,0,13.5,51.08L1340.45,546l127.28,110.7,71.3,62,10.63,8.2,12.54,5.3,14,1.87a39.51,39.51,0,0,0,20.22-4.52,51.83,51.83,0,0,0,21-16.17,26,26,0,0,0,6.75-11.58,39.56,39.56,0,0,0,4.53-20.23q-3.23-54.13-7.87-108.16t-10.73-107.92q-6.82-60.35-15.34-120.49-7.5-53.7-16.43-107.19T1559,131.06q-1.29-6.61-2.6-13.24A39.48,39.48,0,0,0,1547,100a39.76,39.76,0,0,0-14.73-13.52,39.11,39.11,0,0,0-19.52-6.23,39.8,39.8,0,0,0-20.94.94l-12.54,5.29a52.68,52.68,0,0,0-18.83,18.83l-5.3,12.54a52.91,52.91,0,0,0,0,27.92Z"/><path class="cls-2" d="M1455.66,471.83a58.39,58.39,0,0,0,37.13-15.38,39.24,39.24,0,0,0,10.85-16.9,39.39,39.39,0,0,0,4.52-20.22l-1.87-14a52.59,52.59,0,0,0-13.5-23.17l-10.63-8.2a52.26,52.26,0,0,0-26.5-7.17,58.45,58.45,0,0,0-37.12,15.37,39.3,39.3,0,0,0-10.85,16.9,39.56,39.56,0,0,0-4.53,20.23l1.88,13.95a52.35,52.35,0,0,0,13.5,23.17l10.63,8.21a52.25,52.25,0,0,0,26.49,7.17Z"/><path class="cls-2" d="M1507.72,563.24a17,17,0,0,0,11.67-4.84,16.77,16.77,0,0,0,4.83-11.66c-.19-4.27-1.59-8.7-4.83-11.67a16.51,16.51,0,0,0-23.34,0,16.79,16.79,0,0,0-4.83,11.67c.19,4.26,1.59,8.69,4.83,11.66a17.13,17.13,0,0,0,11.67,4.84Z"/><path class="cls-2" d="M1405.88,456.1l-2.58,5.24a12.23,12.23,0,0,0-2,6.13,17,17,0,0,0,7.88,16.44l3.94,1.67a16.73,16.73,0,0,0,8.77,0l3.94-1.67a16.47,16.47,0,0,0,5.92-5.92l2.58-5.23a12.27,12.27,0,0,0,2-6.14,12.49,12.49,0,0,0-.3-6.58,18.44,18.44,0,0,0-7.58-9.86l-3.94-1.66a16.52,16.52,0,0,0-8.77,0l-3.94,1.66a16.55,16.55,0,0,0-5.92,5.92Z"/><path class="cls-1" d="M1903.67,721.18l-92.45,3.16-6.06-177.5-75.29,180.28-85.79,2.93-87.41-174.72,6.06,177.5L1470.29,736l-9.1-266.24,144.21-4.92L1683.3,621l67.06-161.12,144.21-4.92Z"/><path class="cls-2" d="M1844.77,517.5q30-44.72,61.07-88.64,31.26-44.12,63.67-87.38,18.18-24.25,36.72-48.25L1998,303.85q33.21-43,67.53-85t69.77-83.2q19.95-23.15,40.23-46L2085.93,52.5,2097.67,221l11.66,167.55,6.6,94.74,79-45.33q-41.5-21.81-81.47-46.39T2035,339.55q-21.59-15.41-42.56-31.61l10.63,8.21A1386.92,1386.92,0,0,1,1884.63,213.4q-15.7-15.27-30.91-31l-23.17,87.75a16.37,16.37,0,0,1,3-.66l-14,1.88c6-.8,12.16-.41,18.16-.06,9.54.57,19.06,1.57,28.55,2.68q9.93,1.16,19.82,2.5l-14-1.88c32.61,4.38,65.09,9.68,97.53,15.2q46.35,7.89,92.58,16.51,29.27,5.43,58.49,11.09l76.29,14.73L2265,345.22l20.48,3.95V247.92c-39.35,12.22-78.14,26.14-116.53,41.09-41.33,16.09-82.2,33.35-123,50.67-20.9,8.86-41.78,17.78-62.69,26.61l12.54-5.29c-53.51,22.58-107.32,44.53-162.21,63.57q-23.91,8.3-48.08,15.81a58.76,58.76,0,0,0-31.37,24.13,38.94,38.94,0,0,0-6.23,19.52,39.76,39.76,0,0,0,.94,20.93l5.29,12.54a52.79,52.79,0,0,0,18.83,18.84l12.54,5.29a52.91,52.91,0,0,0,27.92,0c39.35-12.21,78.14-26.14,116.53-41.09,41.33-16.09,82.2-33.35,123-50.67,20.9-8.86,41.78-17.78,62.69-26.61l-12.54,5.29C2156.62,406,2210.43,384,2265.32,365q23.91-8.3,48.08-15.81l12.54-5.29a39.69,39.69,0,0,0,14.73-13.52,26.31,26.31,0,0,0,6.75-11.59,39.49,39.49,0,0,0,4.52-20.22l-1.88-14-5.29-12.54a39.61,39.61,0,0,0-13.52-14.73,39.6,39.6,0,0,0-17.85-9.4l-69.65-13.45-22.19-4.28-36.93-7.13q-27.62-5.34-55.25-10.66-18.54-3.56-37.12-7-26.94-5-53.92-9.8-31-5.51-62.07-10.67c-20.26-3.36-40.54-6.57-60.87-9.49-21.25-3-42.54-6.06-63.92-8.09-10.28-1-21-2.22-31.32-1.1-5.26.57-10.64,1.12-15.85,2.16a14.17,14.17,0,0,0-1.67.44A52.58,52.58,0,0,0,1766,205.53c-5,18.31.44,37.54,13.5,51.08A1383.53,1383.53,0,0,0,1906.79,373c48.08,38.74,98.18,74.92,150.69,107.42q41.37,25.59,84.45,48.22a52.5,52.5,0,0,0,79-45.33l-11.74-168.54-11.66-167.55-6.6-94.74-1.88-14L2183.76,26l-8.21-10.62a39.33,39.33,0,0,0-16.89-10.86A26.14,26.14,0,0,0,2145.41.94a26.45,26.45,0,0,0-14,0,26.14,26.14,0,0,0-13.25,3.58,39.33,39.33,0,0,0-16.89,10.86q-36,40.59-71,82.14-34.82,41.37-68.51,83.64-37.72,47.34-74.18,95.68-32.71,43.34-64.26,87.53-31.41,44-61.64,88.82-3.81,5.65-7.6,11.32a38.94,38.94,0,0,0-6.23,19.52,47.17,47.17,0,0,0,10.33,38.78,39.64,39.64,0,0,0,14.73,13.53l12.54,5.29a52.91,52.91,0,0,0,27.92,0l12.54-5.29a52.71,52.71,0,0,0,18.83-18.84Z"/><path class="cls-2" d="M2038.21,375.62a58.33,58.33,0,0,0,37.12-15.38,39.33,39.33,0,0,0,10.86-16.89,39.55,39.55,0,0,0,4.52-20.23l-1.88-14a52.37,52.37,0,0,0-13.5-23.16l-10.62-8.21a52.26,52.26,0,0,0-26.5-7.17A58.33,58.33,0,0,0,2001.09,286a39.38,39.38,0,0,0-10.86,16.89,39.55,39.55,0,0,0-4.52,20.23l1.87,14a52.48,52.48,0,0,0,13.51,23.16l10.62,8.21a52.26,52.26,0,0,0,26.5,7.17Z"/><path class="cls-2" d="M2091.49,212.72a17,17,0,0,0,11.67-4.83,16.75,16.75,0,0,0,4.83-11.67c-.19-4.27-1.59-8.69-4.83-11.67a16.51,16.51,0,0,0-23.34,0,16.79,16.79,0,0,0-4.83,11.67c.19,4.27,1.59,8.69,4.83,11.67a17.17,17.17,0,0,0,11.67,4.83Z"/><path class="cls-2" d="M2099.62,332.27l5.52-1.88a12.45,12.45,0,0,0,5.62-2.95,12.62,12.62,0,0,0,4.25-4.63,12.36,12.36,0,0,0,1.95-6.14,12.49,12.49,0,0,0-.29-6.58l-1.66-3.94a16.63,16.63,0,0,0-5.92-5.92l-4-1.66a16.52,16.52,0,0,0-8.77,0l-5.52,1.88A18.34,18.34,0,0,0,2081,308a12.27,12.27,0,0,0-2,6.14,12.49,12.49,0,0,0,.29,6.58l1.67,3.94a16.6,16.6,0,0,0,5.91,5.92l3.95,1.66a16.52,16.52,0,0,0,8.77,0Z"/><path class="cls-1" d="M2031.39,450.26l9.1,266.24L1948,719.66,1939,453.42Z"/></g></g></svg>