<svg xmlns:xlink="http://www.w3.org/1999/xlink" xmlns="http://www.w3.org/2000/svg" viewBox="0 0 290.31 41">
    <defs>
        <style>
            .cls-1,.cls-3{fill:none;}.cls-2{clip-path:url(#clip-path);}.cls-3{stroke:#fff;stroke-miterlimit:10;stroke-width:5px;}.cls-4{fill:#fff;}
        </style>
        <clipPath id="clip-path" transform="translate(0)">
            <rect class="cls-1" width="290.31" height="40"/>
        </clipPath>
    </defs>
    <g id="Layer_2">
        <g id="Layer_1-2">
            <g class="cls-2">
                <polyline class="cls-3" points="245 18.42 227.04 35.5 209.09 18.42"/>
                <line class="cls-3" x1="227.04" y1="35.5" x2="227.04" y2="5.5"/>
                <polyline class="cls-3" points="288.58 18.42 270.63 35.5 252.68 18.42"/>
                <line class="cls-3" x1="270.63" y1="35.5" x2="270.63" y2="5.5"/>
                <path class="cls-4"
                      d="M6.75,30.1c.45,4,4.15,5.6,14.9,5.6S34,34.4,34,31.55s-1.65-3.1-13.7-4C7.9,26.65,1.4,25.7,1.4,19c0-7.2,8.35-9.15,19-9.15s18.7,1.6,19.35,9.45H33c-.45-3.45-4.05-4.2-13.3-4.2-9.1,0-11.5,1.45-11.5,3.5S9.9,21.3,21.4,22.3s19.3,1.1,19.3,9S33.5,41,22.15,41C10.6,41,.45,39.4,0,30.1Z"
                      transform="translate(0)"/>
                <path class="cls-4"
                      d="M66.5,9.85c10.6,0,17.8,4,19.5,12.2H79.2c-1.3-4.5-5.3-6.7-12.7-6.7-8.55,0-13.65,3-13.65,10.1S58,35.5,66.5,35.5c7.4,0,11.4-2.2,12.7-6.65H86C84.3,37.05,77.1,41,66.5,41c-12,0-20.35-5-20.35-15.55S54.5,9.85,66.5,9.85Z"
                      transform="translate(0)"/>
                <path class="cls-4"
                      d="M121.6,11v5.6a28.57,28.57,0,0,0-7.75-1.05c-4.15,0-8.3,1-14.5,5.85V40H93.1V10.85h6.25v5.2c4.9-5,9.4-6.2,14.35-6.2A26.68,26.68,0,0,1,121.6,11Z"
                      transform="translate(0)"/>
                <path class="cls-4"
                      d="M126,25.45c0-10.55,8.45-15.6,20.55-15.6S167,14.9,167,25.45,158.55,41,146.5,41,126,36,126,25.45Zm34.3,0c0-6.8-4.8-10.1-13.75-10.1s-13.8,3.3-13.8,10.1,4.8,10.05,13.8,10.05S160.25,32.2,160.25,25.45Z"
                      transform="translate(0)"/>
                <path class="cls-4" d="M174.15,0h6.25V40h-6.25Z" transform="translate(0)"/>
                <path class="cls-4" d="M188.6,0h6.25V40H188.6Z" transform="translate(0)"/>
            </g>
        </g>
    </g>
</svg>