<svg xmlns="http://www.w3.org/2000/svg" viewBox="0 0 2552 180.75"><defs><style>.cls-1{fill:#fff;}</style></defs><g id="Layer_2"><g id="Layer_1-2"><polygon class="cls-1" points="334.5 5 270 152.25 208.25 5 160.75 5 94.75 152.25 34.25 5 0 5 73.5 180.75 115.5 180.75 184.25 28 249 180.75 290.75 180.75 368.75 5 334.5 5"/><path class="cls-1" d="M436.25,5,334.5,180.75H371l21.75-38H520.5l21.75,38H578.5L476.75,5ZM408.5,115.25l48-83.75,48,83.75Z"/><polygon class="cls-1" points="758.25 33.5 758.25 5 543.25 5 543.25 33.5 635 33.5 635 180.75 666.75 180.75 666.75 33.5 758.25 33.5"/><path class="cls-1" d="M993,116.75H958.25c-4.75,25-29.25,40.5-71.75,40.5-48.5,0-78.25-19-78.25-64.5S837.75,28.5,886.5,28.5c42.75,0,67,15,71.75,40h34.5C987.5,30.25,953.25,0,886.5,0c-76,0-112.75,36-112.75,92.75,0,44.39,22.49,76.23,68.65,88h86.68C968.05,170.59,988.83,146,993,116.75Z"/><polygon class="cls-1" points="1209.25 5 1209.25 78.75 1058.75 78.75 1058.75 5 1026.75 5 1026.75 180.75 1058.75 180.75 1058.75 107.25 1209.25 107.25 1209.25 180.75 1241.25 180.75 1241.25 5 1209.25 5"/><polygon class="cls-1" points="1487.75 33.5 1487.75 5 1272.75 5 1272.75 33.5 1364.5 33.5 1364.5 180.75 1396.25 180.75 1396.25 33.5 1487.75 33.5"/><path class="cls-1" d="M1729.5,92.75C1729.5,36.5,1693,0,1616.5,0c-76.75,0-113.25,36.25-113.25,92.75,0,44.23,22.37,76.2,68.9,88h88.47C1707.1,168.91,1729.5,136.82,1729.5,92.75Zm-113,64.5c-49.5,0-78.75-19-78.75-64.5s29-64.25,78.75-64.25,78.75,19,78.75,64.25S1666,157.25,1616.5,157.25Z"/><polygon class="cls-1" points="2073.51 5 2009.01 152.25 1947.26 5 1899.76 5 1833.76 152.25 1773.26 5 1739.01 5 1812.51 180.75 1854.51 180.75 1923.26 28 1988.01 180.75 2029.76 180.75 2107.76 5 2073.51 5"/><polygon class="cls-1" points="2165.76 153 2165.76 106.75 2313.76 106.75 2313.76 79 2165.76 79 2165.76 33 2318.76 33 2318.76 5 2133.76 5 2133.76 180.75 2318.76 180.75 2318.76 153 2165.76 153"/><path class="cls-1" d="M2525.5,104c13.19-5.49,22.47-14.75,26.5-28.73V40.83C2544.75,15.56,2520.35,5,2486.25,5H2355V180.75h32V121.5h108.75c20,0,24.5,4.5,24.5,22.25v37H2552V136C2552,118,2542.75,106.75,2525.5,104ZM2478,93.5h-91V33.25h91c18.25,0,42,0,42,30C2520,93.5,2496.25,93.5,2478,93.5Z"/></g></g></svg>