<svg xmlns="http://www.w3.org/2000/svg" viewBox="0 0 2123.99 180.75"><defs><style>.cls-1{fill:#fff;}</style></defs><g id="Layer_2"><g id="Layer_1-2"><polygon class="cls-1" points="142.25 175.75 244 0 207.75 0 122 149.25 36.5 0 0 0 101.75 175.75 142.25 175.75"/><rect class="cls-1" x="270.75" width="32" height="175.75"/><polygon class="cls-1" points="528.5 175.75 528.5 148 375.5 148 375.5 101.75 523.5 101.75 523.5 74 375.5 74 375.5 28 528.5 28 528.5 0 343.5 0 343.5 175.75 528.5 175.75"/><polygon class="cls-1" points="670.25 175.75 739 23 803.75 175.75 845.5 175.75 923.5 0 889.25 0 824.75 147.25 763 0 715.5 0 649.5 147.25 589 0 554.75 0 628.25 175.75 670.25 175.75"/><path class="cls-1" d="M1054.25,180.75q3.88,0,7.7-.07h-15.61C1048.94,180.73,1051.57,180.75,1054.25,180.75Z"/><path class="cls-1" d="M1158.75,124.5c0-43.75-42.75-47-111-51.75-58.25-4-71.25-8.5-71.25-25.5,0-16.25,13-24.75,64.25-24.75,54.75,0,76.25,9,76.25,31.75h34.25c-.18-28.15-20.68-46.15-55.8-54.25H989c-29.5,6.68-46.78,20.69-46.78,45.75,0,38.5,30.5,50.5,104.25,54.75,65.75,4,78,7,78,25.75,0,17.5-19,27-70.5,27-64.75,0-84.25-12.75-84.25-34.5h-34.5c2.41,45.25,44,60.83,111.09,61.93H1062C1116.31,179.74,1158.75,168.21,1158.75,124.5Z"/><path class="cls-1" d="M1410,180.75c1.78,0,3.53,0,5.26-.07h-10.57C1406.44,180.72,1408.2,180.75,1410,180.75Z"/><path class="cls-1" d="M1523,87.75c0-44-22.37-75.95-68.77-87.75h-88.71c-46.45,11.76-68.77,43.56-68.77,87.75,0,55.18,34.82,91.28,107.94,92.93h10.57C1488.17,179,1523,142.69,1523,87.75Zm-113,64.5c-49.5,0-78.75-19-78.75-64.5s29-64.25,78.75-64.25,78.75,19,78.75,64.25S1459.5,152.25,1410,152.25Z"/><polygon class="cls-1" points="1588.74 175.75 1588.74 116 1726.74 116 1726.74 87.5 1588.74 87.5 1588.74 28.5 1741.74 28.5 1741.74 0 1556.74 0 1556.74 175.75 1588.74 175.75"/><path class="cls-1" d="M1916.49,175.75l21.75-38H2066l21.75,38H2124L2022.24,0h-40.5L1880,175.75ZM2002,26.5l48,83.75h-96Z"/></g></g></svg>